<?xml version="1.0" encoding="UTF-8" standalone="no"?>
<!-- Created with Inkscape (http://www.inkscape.org/) -->

<svg
   xmlns:dc="http://purl.org/dc/elements/1.1/"
   xmlns:cc="http://creativecommons.org/ns#"
   xmlns:rdf="http://www.w3.org/1999/02/22-rdf-syntax-ns#"
   xmlns:svg="http://www.w3.org/2000/svg"
   xmlns="http://www.w3.org/2000/svg"
   xmlns:sodipodi="http://sodipodi.sourceforge.net/DTD/sodipodi-0.dtd"
   xmlns:inkscape="http://www.inkscape.org/namespaces/inkscape"
   width="61.367634mm"
   height="12.685953mm"
   viewBox="0 0 61.367634 12.685953"
   version="1.1"
   id="svg8"
   inkscape:version="0.92.4 5da689c313, 2019-01-14"
   sodipodi:docname="title.svg"
   inkscape:export-filename="/home/serge/projects/sokoban/assets/title.png"
   inkscape:export-xdpi="192.05"
   inkscape:export-ydpi="192.05">
  <defs
     id="defs2" />
  <sodipodi:namedview
     id="base"
     pagecolor="#ffffff"
     bordercolor="#666666"
     borderopacity="1.0"
     inkscape:pageopacity="0.0"
     inkscape:pageshadow="2"
     inkscape:zoom="1.4"
     inkscape:cx="70.196171"
     inkscape:cy="-56.076951"
     inkscape:document-units="mm"
     inkscape:current-layer="layer1"
     showgrid="false"
     fit-margin-top="0"
     fit-margin-left="0"
     fit-margin-right="0"
     fit-margin-bottom="0"
     inkscape:window-width="1276"
     inkscape:window-height="1393"
     inkscape:window-x="1280"
     inkscape:window-y="45"
     inkscape:window-maximized="0" />
  <metadata
     id="metadata5">
    <rdf:RDF>
      <cc:Work
         rdf:about="">
        <dc:format>image/svg+xml</dc:format>
        <dc:type
           rdf:resource="http://purl.org/dc/dcmitype/StillImage" />
        <dc:title></dc:title>
      </cc:Work>
    </rdf:RDF>
  </metadata>
  <g
     inkscape:label="Layer 1"
     inkscape:groupmode="layer"
     id="layer1"
     transform="translate(-4.895419,-4.122521)">
    <g
       id="g931"
       transform="translate(-13.229842,-34.344134)">
      <flowRoot
         transform="matrix(0.26458333,0,0,0.26458333,-0.0458562,-6.5508851)"
         style="font-style:normal;font-weight:normal;font-size:40px;line-height:1.25;font-family:sans-serif;letter-spacing:0px;word-spacing:0px;display:inline;fill:#2dcb70;fill-opacity:1;stroke:#ebe100;stroke-width:6.67086601;stroke-linecap:round;stroke-linejoin:round;stroke-miterlimit:4;stroke-dasharray:none;stroke-opacity:1"
         id="flowRoot880"
         xml:space="preserve"><flowRegion
           style="fill:#2dcb70;fill-opacity:1;stroke:#ebe100;stroke-width:6.67086601;stroke-linecap:round;stroke-linejoin:round;stroke-miterlimit:4;stroke-dasharray:none;stroke-opacity:1"
           id="flowRegion882"><rect
             style="fill:#2dcb70;fill-opacity:1;stroke:#ebe100;stroke-width:6.67086601;stroke-linecap:round;stroke-linejoin:round;stroke-miterlimit:4;stroke-dasharray:none;stroke-opacity:1"
             y="173.48137"
             x="68.185295"
             height="106.57109"
             width="253.54829"
             id="rect884" /></flowRegion><flowPara
           style="font-style:normal;font-variant:normal;font-weight:bold;font-stretch:normal;font-size:53.33333588px;line-height:1;font-family:'Bitstream Vera Sans';-inkscape-font-specification:'Bitstream Vera Sans Bold';letter-spacing:-4.0999999px;fill:#2dcb70;fill-opacity:1;stroke:#ebe100;stroke-width:6.67086601;stroke-linecap:round;stroke-linejoin:round;stroke-miterlimit:4;stroke-dasharray:none;stroke-opacity:1"
           id="flowPara886">Sokoban</flowPara></flowRoot>      <flowRoot
         xml:space="preserve"
         id="flowRoot894"
         style="font-style:normal;font-weight:normal;font-size:40px;line-height:1.25;font-family:sans-serif;letter-spacing:0px;word-spacing:0px;display:inline;fill:#2dcb70;fill-opacity:1;stroke:none;stroke-width:6.67086601;stroke-linecap:round;stroke-linejoin:round;stroke-miterlimit:4;stroke-dasharray:none;stroke-opacity:1"
         transform="matrix(0.26458333,0,0,0.26458333,-0.0458562,-6.5508851)"><flowRegion
           id="flowRegion890"
           style="fill:#2dcb70;fill-opacity:1;stroke:none;stroke-width:6.67086601;stroke-linecap:round;stroke-linejoin:round;stroke-miterlimit:4;stroke-dasharray:none;stroke-opacity:1"><rect
             id="rect888"
             width="253.54829"
             height="106.57109"
             x="68.185295"
             y="173.48137"
             style="fill:#2dcb70;fill-opacity:1;stroke:none;stroke-width:6.67086601;stroke-linecap:round;stroke-linejoin:round;stroke-miterlimit:4;stroke-dasharray:none;stroke-opacity:1" /></flowRegion><flowPara
           id="flowPara892"
           style="font-style:normal;font-variant:normal;font-weight:bold;font-stretch:normal;font-size:53.33333588px;line-height:1;font-family:'Bitstream Vera Sans';-inkscape-font-specification:'Bitstream Vera Sans Bold';letter-spacing:-4.0999999px;fill:#2dcb70;fill-opacity:1;stroke:none;stroke-width:6.67086601;stroke-linecap:round;stroke-linejoin:round;stroke-miterlimit:4;stroke-dasharray:none;stroke-opacity:1">Sokoban</flowPara></flowRoot>      <path
         inkscape:connector-curvature="0"
         id="flowRoot914"
         transform="scale(0.26458333)"
         d="m 144.19922,149.95508 c -0.74699,0.0176 -1.68457,0.44045 -2.85547,1.4082 v 2.5 c 4.14907,-3.42921 5.3611,-0.024 5.55664,4.08399 0.12809,-3.81062 -0.26774,-8.0496 -2.70117,-7.99219 z m 62.81836,0 c -3.28618,-0.16496 -3.57239,2.67162 -3.37305,5.99219 0.22057,-2.63984 1.40174,-4.31989 5.49805,-3.08399 0.10094,0.34351 0.15904,0.73173 0.19922,1.13672 0.0927,-1.37816 0.0901,-2.65224 -0.19922,-3.63672 -0.81997,-0.24739 -1.52217,-0.37794 -2.125,-0.4082 z m -122.769533,1.30273 c -5.964096,0.11032 -11.299714,5.11229 -10.464844,11.14063 0.758026,-5.26262 6.169578,-9.16424 11.773438,-8.58594 1.037915,-0.0286 2.076761,-0.002 3.113281,0.0547 2.697559,0.78038 8.182866,-0.20712 9.378906,2.29687 1.585371,-5.56865 -6.032859,-3.82888 -9.378906,-4.79687 -1.03652,-0.0567 -2.075366,-0.0833 -3.113281,-0.0547 -0.438349,-0.0452 -0.87457,-0.0627 -1.308594,-0.0547 z m 37.253903,9.66797 c -0.53983,0.004 -1.08862,0.0362 -1.64257,0.10156 -8.17976,-0.66655 -14.01993,6.91481 -13.33985,14.5 0.63497,-6.65714 6.06351,-12.59293 13.33985,-12 7.66837,-0.90413 14.13859,4.24603 14.84765,11.40821 0.67996,-7.87454 -5.42792,-14.06306 -13.20508,-14.00977 z m 62.48828,0.0137 c -0.54336,3e-5 -1.09524,0.0289 -1.65429,0.0879 -8.19485,-0.66633 -14.0161,6.91383 -13.33594,14.50196 0.63173,-6.65899 6.04617,-12.5947 13.33594,-12.00196 7.75574,-0.81907 14.14876,4.17397 14.84179,11.41211 0.65772,-7.99746 -5.35325,-14.00031 -13.1875,-14 z m 101.375,0.01 c -4.08412,0.0671 -6.75764,7.04852 -10.25585,3.03906 -2.80219,-6.49898 -6.47672,0.23249 -5.85157,5.59375 0.48157,-4.60809 3.47746,-8.5999 5.85157,-3.09375 0.58518,0.67071 1.14778,1.03443 1.69726,1.17383 1.5795,-2.16448 4.05635,-3.65104 6.58203,-3.65039 0.87066,-0.45252 1.79592,-0.70035 2.8125,-0.47852 l 0.63281,-0.0176 0.55664,0.0117 c 5.873,-0.12086 7.62229,5.27568 7.85938,10.35157 0.23357,-5.61073 -0.99664,-12.9928 -7.85938,-12.85157 l -0.55664,-0.0117 -0.63281,0.0176 c -0.28548,-0.0623 -0.56366,-0.0884 -0.83594,-0.084 z m -64.55273,0.0469 c -0.21755,0.004 -0.43704,0.0145 -0.65625,0.0352 -2.27669,-0.30111 -6.49492,2.27951 -6.67578,3.68359 1.54811,-0.90241 3.16755,-1.14986 4.70117,-0.93164 0.71707,-0.22072 1.40645,-0.3271 1.97461,-0.25195 3.50738,-0.33059 6.84377,1.55306 8.66211,4.51367 1.37752,2.06293 2.13528,4.68366 2.32031,7.38867 0.23384,-3.54944 -0.51954,-7.19189 -2.32031,-9.88867 -1.70469,-2.77557 -4.74266,-4.60344 -8.00586,-4.54883 z m 28.03125,0.0234 c -0.6475,-0.009 -1.29471,-8.2e-4 -1.93945,0.0176 -2.86502,0.51588 -10.08607,-0.43168 -8.33789,3.40039 3.42137,-0.91457 8.4405,-1.93338 12.25586,-0.83008 1.27791,0.099 2.54562,0.28866 3.78515,0.625 5.37547,1.341 6.51918,5.93918 6.67188,10.8418 0.10899,-5.75706 -0.38476,-11.77337 -6.67188,-13.3418 -1.87737,-0.50942 -3.82118,-0.68687 -5.76367,-0.71289 z m -39.92578,0.39844 c -0.16758,2.71463 0.0493,5.11692 1.95898,5.97265 0.50148,-0.79559 1.09249,-1.53051 1.80274,-2.16015 -2.65496,0.01 -3.55408,-1.59625 -3.76172,-3.8125 z m -45.53125,0.12695 c -2.01061,-0.12959 -9.28979,4.23898 -10.24414,7.23633 -4.15254,5.85435 -6.46657,1.82492 -6.82031,-2.76367 -0.43079,5.29962 1.91303,12.18207 6.82031,5.26367 0.85616,-2.68897 6.781,-6.46279 9.44726,-7.12109 0.012,-0.015 0.0292,-0.0299 0.041,-0.0449 1.52141,-1.77973 1.54262,-2.5196 0.75586,-2.57031 z m -84.328126,0.17578 c -1.288698,4.6617 4.724268,7.88225 9.130859,7.76172 4.9772,0.49455 11.453185,2.8124 12.322267,8.08008 1.05851,-7.05493 -6.617855,-10.01327 -12.322267,-10.58008 -3.564277,0.0975 -8.173236,-1.99389 -9.130859,-5.26172 z m 124.888676,0.71485 c -0.028,0.32404 -0.0657,0.63696 -0.12696,0.92773 v 2.5 c 0.20619,-0.97896 0.20144,-2.16811 0.12696,-3.42773 z m 51.66015,7.92968 c -1.18186,3.40619 -8.09947,1.17232 -11.35156,2.0625 -5.28726,-0.46227 -9.35926,4.36601 -8.53125,9.08399 0.64374,-3.66478 3.99897,-6.76854 8.17969,-6.58789 3.02832,-1.76004 7.21775,-1.39705 10.50195,-0.68164 1.09897,-0.5876 1.6638,-1.71187 1.23047,-3.80664 -0.009,-0.0245 -0.0202,-0.0461 -0.0293,-0.0703 z m -100.89844,4.28711 c -0.63226,1.53083 -0.26526,3.10469 2.13477,4.70118 1.16526,1.96498 5.68983,5.34768 7.72461,7.67968 4.16434,-0.5488 -5.90009,-7.10299 -7.72461,-10.17968 -1.11134,-0.73926 -1.78658,-1.47324 -2.13477,-2.20118 z m 135.16016,0.41797 c -0.10257,2.75837 -0.45503,5.58383 -0.33203,8.21875 0.10589,-2.71637 0.45698,-5.54066 0.33203,-8.21875 z m -160.86328,0.41407 c -0.16811,2.2393 -0.77831,4.4103 -1.81055,6.10546 -3.82371,6.2509 -14.4661,3.20484 -14.62109,-4.11718 -0.12706,-0.61714 -0.20807,-1.26796 -0.25781,-1.93164 -0.11713,1.52422 -0.026,3.05329 0.25781,4.43164 0.15499,7.32202 10.79738,10.36808 14.62109,4.11718 1.41591,-2.32524 2.05629,-5.53879 1.81055,-8.60546 z m 62.47656,0 c -0.16821,2.24213 -0.77942,4.416 -1.8125,6.11328 -3.82957,6.23825 -14.45815,3.197 -14.61719,-4.11914 -0.12749,-0.61732 -0.2097,-1.26772 -0.25976,-1.93164 -0.11649,1.52419 -0.0249,3.05347 0.25976,4.43164 0.15904,7.31614 10.78762,10.35739 14.61719,4.11914 1.41649,-2.3272 2.05804,-5.54427 1.8125,-8.61328 z m 17.58203,0.008 c -0.24943,2.87937 0.3701,5.86708 1.79493,8.26953 0.42517,-0.50347 0.78809,-0.8831 1.10546,-0.92969 -1.69164,-1.97006 -2.66807,-4.61611 -2.90039,-7.33984 z m 60.98243,0.0664 c -0.19641,2.70878 -0.80268,5.82742 -0.57813,8.11524 0.19845,-2.71106 0.80689,-5.83139 0.57813,-8.11524 z m -44.47852,0.95508 c -0.66411,5.28627 -5.32098,10.10904 -10.96484,7.92578 -3.47451,-1.85184 0.5913,2.05175 3.39257,3.00391 4.83541,-0.44237 8.20886,-5.93518 7.57227,-10.92969 z m 69.66602,0.0879 c -0.0302,0.61506 -0.0658,1.22756 -0.125,1.78321 0.16716,0.78382 0.27324,1.70126 0.32617,2.66015 0.0841,-1.53801 0.011,-3.11228 -0.20117,-4.44336 z m -20.30469,0.42969 c -0.2085,1.98128 0.26041,4.61608 0.43554,6.95313 0.20874,-1.95969 -0.26222,-4.59709 -0.43554,-6.95313 z m -19.21094,1.24414 c -0.3157,1.97427 -1.31813,3.86484 -2.61133,5.02149 0.31648,0.35295 0.71775,0.73701 1.16602,1.11718 1.1606,-1.71555 1.82975,-4.03113 1.44531,-6.13867 z m -160.958984,1.14844 c -1.03236,4.13092 -7.250921,5.93492 -11.388672,4.79492 -3.18584,-0.35426 -6.27561,-1.32362 -9.19336,-2.63086 -0.371851,1.18412 -0.347921,2.08445 -0.06641,2.78906 0.02674,-0.0992 0.03394,-0.18568 0.06641,-0.28906 2.91775,1.30724 6.00752,2.2766 9.19336,2.63086 4.895522,1.34877 12.705396,-1.42302 11.388672,-7.29492 z m 146.427734,1.39648 c -0.79728,2.99058 1.3112,5.71161 4.12305,6.7793 2.33288,-0.28883 4.52067,-1.30757 5.80664,-2.93359 -3.80651,2.35684 -8.96902,-0.12757 -9.92969,-3.84571 z m 20.00586,0.41016 c -0.0275,1.11555 -0.0386,2.18876 0.0215,3.1543 0.045,0.26241 0.0587,0.47641 0.0879,0.71484 0.1608,-0.76936 0.15166,-1.8166 -0.0879,-3.21484 -0.0131,-0.20989 -0.0142,-0.43581 -0.0215,-0.6543 z m -114.59375,0.46094 c -0.0619,0.9673 -0.0256,1.96943 0.0137,2.95312 0.0778,-0.88086 0.0276,-1.9061 -0.0137,-2.95312 z"
         style="font-style:normal;font-weight:normal;font-size:40px;line-height:1.25;font-family:sans-serif;letter-spacing:0px;word-spacing:0px;display:inline;fill:#79d399;fill-opacity:1;stroke:none;stroke-width:6.67086601;stroke-linecap:round;stroke-linejoin:round;stroke-miterlimit:4;stroke-dasharray:none;stroke-opacity:1" />
    </g>
  </g>
</svg>
